<svg xmlns="http://www.w3.org/2000/svg" xmlns:xlink="http://www.w3.org/1999/xlink" width="500" zoomAndPan="magnify" viewBox="0 0 375 374.999991" height="500" preserveAspectRatio="xMidYMid meet" version="1.0"><defs><g/><clipPath id="id1"><path d="M 13 130.96875 L 363 130.96875 L 363 214.21875 L 13 214.21875 Z M 13 130.96875 " clip-rule="nonzero"/></clipPath><clipPath id="id2"><path d="M 360 149 L 368.542969 149 L 368.542969 157 L 360 157 Z M 360 149 " clip-rule="nonzero"/></clipPath><clipPath id="id3"><path d="M 11.542969 173 L 13 173 L 13 174 L 11.542969 174 Z M 11.542969 173 " clip-rule="nonzero"/></clipPath></defs><g clip-path="url(#id1)"><path fill="#1a9168" d="M 28.746094 181.121094 C 28.578125 181.613281 29.261719 181.726562 29.425781 182.242188 L 28.5 182.527344 C 27.542969 182.003906 27.179688 181.148438 26.824219 180.308594 L 25.898438 181.125 C 25.769531 180.320312 25.660156 179.648438 25.542969 178.90625 L 22.996094 178.90625 L 21.566406 180.308594 C 21.472656 180.023438 21.355469 179.75 21.210938 179.488281 C 20.882812 179 20.515625 178.539062 20.113281 177.996094 C 19.835938 178.582031 19.597656 179.078125 19.375 179.542969 L 18.488281 179.542969 L 18 178.152344 L 16.527344 178.046875 L 13.714844 175.488281 C 13.742188 175.183594 13.765625 174.953125 13.800781 174.574219 C 14.828125 174.265625 15.941406 174.480469 17.035156 174.40625 L 17.96875 175.242188 L 18.359375 173.183594 C 18.886719 172.707031 19.542969 173.089844 20.085938 172.941406 L 20.863281 172.265625 L 21.796875 173.027344 C 21.921875 172.195312 22.023438 171.519531 22.121094 170.839844 C 23.386719 171.25 23.695312 172.710938 24.96875 172.953125 C 25.335938 173.605469 25.335938 173.605469 26.246094 173.535156 C 26.316406 173.441406 26.453125 173.355469 26.457031 173.257812 C 26.46875 172.039062 26.464844 170.824219 26.464844 169.683594 L 25.710938 168.839844 C 25.722656 168.300781 25.699219 167.792969 26.503906 167.816406 C 27.140625 167.816406 28.175781 168.96875 28.9375 170.601562 C 29.273438 170.6875 29.617188 170.761719 29.945312 170.871094 C 30.054688 170.902344 30.125 171.027344 30.214844 171.097656 L 30.214844 171.851562 L 31.273438 172.890625 C 32.230469 172.46875 32.378906 171.476562 32.867188 170.722656 C 33.402344 169.894531 34.472656 169.914062 35.199219 169.402344 L 35.734375 169.925781 C 36.414062 169.769531 36.324219 169.195312 36.117188 168.882812 C 35.792969 168.394531 35.195312 168.0625 35.570312 167.332031 C 36.34375 166.796875 37.230469 167.1875 38.058594 167.082031 L 38.84375 166.367188 C 39.613281 166.0625 39.871094 166.847656 40.375 167 L 41.339844 166.222656 L 42.625 166.984375 L 43.566406 166.132812 C 43.484375 165.953125 43.449219 165.734375 43.316406 165.632812 C 42.175781 164.757812 40.890625 164.238281 39.464844 164.066406 C 38.90625 163.304688 39.320312 162.429688 39.191406 161.566406 L 37.714844 160.882812 L 37.714844 160.105469 C 38.8125 158.769531 40.644531 158.613281 41.898438 157.519531 L 46.339844 157.519531 L 47.027344 156.851562 L 52.269531 156.851562 L 52.929688 156.203125 C 54.054688 155.804688 55.339844 156.457031 56.554688 155.667969 C 55.375 155.117188 54.253906 155.402344 53.175781 155.355469 C 52.054688 155.308594 50.929688 155.34375 49.804688 155.34375 L 43.316406 155.34375 L 42.585938 154.628906 L 29.136719 154.628906 C 28.855469 154.375 28.589844 154.128906 28.3125 153.875 L 22.332031 153.875 L 21.671875 153.226562 L 19.425781 153.226562 L 18.710938 152.527344 L 16.898438 152.320312 L 16.589844 151 L 15.144531 149.886719 C 15.34375 148.523438 16.472656 148.0625 17.167969 147.253906 L 18.597656 147.253906 L 19.378906 146.597656 L 21.582031 146.597656 L 22.53125 147.324219 C 22.636719 146.824219 22.710938 146.492188 22.789062 146.09375 C 23.488281 145.453125 24.394531 145.949219 25.257812 145.8125 L 26.074219 146.527344 L 27.089844 144.617188 L 24.960938 142.507812 L 27.378906 140.140625 C 28.074219 139.769531 28.824219 140.019531 29.699219 139.929688 L 30.660156 139.234375 L 33.542969 139.234375 L 34.335938 138.457031 L 41.078125 138.457031 L 41.773438 137.777344 L 49.207031 137.777344 L 50.0625 137.023438 L 60.492188 137.023438 L 61.296875 136.308594 L 62.226562 137.128906 L 63.601562 136.4375 L 64.257812 136.9375 L 65.015625 136.328125 L 65.777344 136.984375 L 66.292969 136.511719 C 66.386719 136.433594 66.472656 136.289062 66.570312 136.289062 C 71.566406 136.277344 76.546875 136.28125 81.511719 136.28125 C 81.714844 136.082031 81.890625 135.90625 82.066406 135.742188 C 82.164062 135.679688 82.261719 135.566406 82.359375 135.566406 C 89.339844 135.566406 96.320312 135.566406 103.234375 135.566406 L 103.960938 134.851562 L 115.273438 134.851562 C 115.417969 134.515625 115.503906 134.304688 115.59375 134.136719 C 117.527344 134.09375 119.457031 134.011719 121.382812 133.914062 C 121.433594 133.914062 121.480469 133.757812 121.527344 133.671875 C 118.71875 133.234375 117.601562 133.242188 115.59375 134.136719 C 115.226562 134.101562 114.855469 134.089844 114.484375 134.097656 L 113.699219 133.382812 C 112.886719 133.09375 112.636719 133.894531 111.914062 134.171875 L 110.527344 133.429688 L 102.417969 133.429688 L 101.703125 134.128906 L 82.230469 134.128906 L 81.574219 134.769531 C 80.734375 134.828125 79.886719 135 78.988281 134.617188 C 78.964844 134.316406 78.941406 133.984375 78.917969 133.703125 C 79.0625 133.5625 79.148438 133.402344 79.238281 133.402344 C 83.222656 133.386719 87.210938 133.390625 91.179688 133.390625 L 91.996094 132.652344 L 92.777344 133.335938 L 93.429688 132.695312 L 94.242188 133.304688 L 96.582031 133.304688 C 96.890625 133.234375 97.105469 132.363281 97.957031 132.660156 L 98.730469 133.304688 L 99.511719 132.605469 L 125.683594 132.605469 C 125.949219 132.363281 126.21875 132.128906 126.476562 131.890625 L 127.136719 132.535156 L 127.945312 131.941406 L 131.019531 131.941406 L 131.648438 132.554688 L 132.433594 131.917969 L 133.195312 132.589844 L 133.71875 132.101562 C 133.929688 132.027344 134.148438 131.886719 134.367188 131.886719 C 142.71875 131.878906 151.058594 131.875 159.390625 131.875 L 160.175781 131.1875 L 160.949219 131.839844 C 161.824219 132.144531 162.019531 131.230469 162.855469 131.105469 L 163.941406 131.777344 L 164.59375 131.226562 L 244.890625 131.226562 L 245.523438 131.847656 L 246.320312 131.148438 L 248.539062 131.148438 L 249.320312 131.863281 L 250.789062 131.863281 L 251.574219 131.179688 L 256.828125 131.179688 L 257.445312 131.785156 L 258.667969 131.050781 L 259.816406 131.792969 C 260.011719 131.613281 260.269531 131.394531 260.554688 131.152344 L 262.019531 131.152344 L 262.792969 131.84375 L 263.730469 131.023438 L 265.0625 131.707031 L 266.160156 131.050781 L 267.285156 131.773438 L 268.425781 130.980469 L 269.542969 131.839844 C 269.816406 131.601562 270.089844 131.363281 270.472656 131.023438 L 272.101562 131.859375 L 280.820312 131.859375 C 280.960938 132.191406 281.046875 132.394531 281.136719 132.609375 L 279.28125 132.609375 L 278.488281 133.324219 L 277.953125 132.789062 C 272.527344 132.441406 263.550781 132.515625 260.96875 132.933594 C 261.023438 133.019531 261.0625 133.15625 261.148438 133.183594 C 261.363281 133.273438 261.589844 133.328125 261.824219 133.34375 C 266.175781 133.351562 270.523438 133.34375 274.785156 133.34375 L 275.527344 134.070312 L 283.023438 134.070312 L 283.804688 134.832031 L 293.542969 134.832031 L 294.320312 135.59375 L 305.53125 135.59375 L 306.207031 136.253906 L 310.65625 136.253906 L 311.484375 137.007812 L 314.449219 137.007812 L 315.269531 137.753906 L 320.476562 137.753906 L 321.132812 138.398438 C 322.335938 138.617188 323.691406 138.359375 325.019531 138.539062 L 325.675781 139.183594 L 330.921875 139.183594 L 331.636719 139.898438 L 332.421875 139.277344 L 333.203125 139.933594 L 336.96875 139.933594 L 337.917969 141.027344 C 337.851562 141.113281 337.738281 141.386719 337.613281 141.398438 C 336.125 141.441406 334.636719 141.441406 333.152344 141.472656 C 333.0625 141.472656 332.972656 141.632812 332.890625 141.714844 C 333.058594 142.332031 333.648438 142.0625 334.027344 142.234375 L 335.394531 143.574219 L 336.203125 142.90625 L 339.914062 142.90625 L 340.695312 143.621094 L 342.90625 143.621094 L 343.734375 144.375 L 345.160156 144.375 L 346.023438 145.128906 L 348.199219 145.128906 C 348.542969 145.773438 348.863281 146.378906 349.199219 147.007812 L 348.570312 147.6875 C 349.074219 148.292969 349.746094 147.914062 350.355469 148.042969 L 351.929688 146.578125 L 353.414062 146.578125 C 354.277344 147.359375 353.605469 147.84375 352.976562 148.457031 C 353.910156 148.964844 354.84375 148.753906 355.707031 148.675781 L 356.613281 147.980469 C 356.695312 148.5 356.746094 148.828125 356.808594 149.230469 L 355.367188 149.726562 C 355.546875 150.066406 355.722656 150.390625 355.917969 150.734375 C 355.382812 151.269531 354.71875 150.765625 354.222656 151.015625 L 353.289062 150.195312 L 352.976562 151.234375 C 353.839844 151.695312 354.761719 151.984375 355.296875 152.90625 C 354.851562 153.054688 354.347656 153.117188 354 153.375 C 353.601562 153.679688 353.289062 154.03125 352.675781 153.882812 C 351.875 153.441406 352.5625 152.558594 352.140625 151.917969 C 351.792969 151.484375 351.246094 151.808594 350.789062 151.714844 L 350.789062 149.769531 L 349.925781 149.449219 C 348.992188 149.75 348.789062 150.835938 347.828125 150.953125 C 347.011719 151.050781 346.636719 151.667969 346.296875 152.269531 C 346.214844 153.425781 347.777344 153.542969 347.792969 154.613281 L 346.589844 154.613281 C 346.515625 154.929688 346.417969 155.234375 346.296875 155.53125 C 346.09375 155.886719 345.871094 156.222656 345.632812 156.550781 L 346.683594 157.496094 L 347.804688 156.46875 L 347.804688 154.613281 L 348.496094 154.894531 L 348.496094 157.253906 C 348.421875 157.585938 347.476562 157.765625 348.027344 158.839844 L 348.785156 159.621094 C 349.554688 159.472656 349.742188 158.644531 350.796875 158.308594 L 351.84375 158.308594 L 352.714844 157.527344 C 353.070312 157.980469 353.496094 158.40625 353.785156 158.910156 C 354.171875 159.597656 354.359375 160.402344 354.796875 161.054688 C 355.203125 161.648438 355.828125 162.105469 356.390625 162.660156 L 358.742188 162.660156 L 359.964844 164.167969 L 361.011719 164.167969 C 361.121094 164.464844 361.238281 164.785156 361.414062 165.265625 L 359.804688 166.476562 L 359.804688 168.167969 L 359.09375 168.941406 L 359.789062 169.699219 C 359.894531 170.328125 359.589844 170.972656 360.179688 171.527344 C 360.433594 170.992188 360.667969 170.503906 360.914062 169.988281 L 361.925781 171.925781 C 361.792969 172.074219 361.570312 172.328125 361.339844 172.585938 L 362.054688 173.347656 L 362.054688 174.804688 C 361.851562 174.925781 361.652344 175.148438 361.453125 175.148438 C 358.484375 175.171875 355.515625 175.164062 352.707031 175.164062 L 351.898438 175.949219 L 348.703125 175.949219 C 348.84375 176.84375 349.59375 177.097656 349.992188 177.644531 C 349.875 177.792969 349.757812 178.074219 349.632812 178.078125 C 347.648438 178.105469 345.660156 178.097656 343.675781 178.097656 L 342.855469 179.722656 L 339.96875 178.273438 L 337.027344 179.738281 L 336.25 178.109375 L 335.457031 178.109375 C 334.824219 178.578125 335.207031 179.242188 335.070312 179.910156 L 334.109375 180.917969 L 332.390625 181.113281 C 332.285156 181.214844 332.125 181.300781 332.121094 181.390625 C 332.105469 182.363281 332.109375 183.335938 332.109375 184.300781 L 331.375 185.085938 L 332.445312 186.140625 L 333.238281 185.425781 C 333.847656 185.425781 334.46875 185.425781 334.976562 185.40625 C 335.207031 185.734375 335.414062 186.117188 335.628906 186.128906 C 336.179688 186.144531 336.808594 186.390625 337.300781 185.839844 C 336.679688 185.054688 335.820312 185.570312 334.980469 185.40625 C 335.402344 184.769531 335.773438 184.101562 336.085938 183.40625 L 337.226562 183.015625 C 337.289062 182.464844 337.359375 181.890625 337.425781 181.3125 C 337.933594 180.773438 338.597656 181.152344 339.175781 181.023438 L 339.992188 181.765625 L 341.554688 181.765625 C 341.667969 182.066406 341.78125 182.382812 341.964844 182.886719 L 339.578125 184.761719 L 339.578125 185.8125 C 340.078125 186.394531 340.738281 186.097656 341.320312 186.148438 C 341.816406 186.191406 342.316406 186.160156 342.816406 186.160156 L 344.625 186.160156 C 344.746094 185.152344 344.015625 185.621094 343.375 184.730469 C 343.480469 185.039062 343.375 184.601562 343.175781 184.21875 C 343.089844 184.066406 342.773438 184.042969 342.558594 183.949219 L 342.558594 181.414062 L 341.664062 180.5 L 343.128906 180.25 C 343.226562 180.742188 343.292969 181.070312 343.371094 181.457031 L 345.097656 183.148438 L 346.265625 183.375 L 346.265625 185.722656 L 347.402344 186.886719 L 348.910156 186.886719 C 349.804688 186.125 348.949219 185.046875 349.410156 184.207031 L 350.039062 183.957031 L 350.039062 185.753906 L 350.824219 186.574219 L 349.101562 188.046875 C 349.359375 188.480469 349.609375 188.839844 349.796875 189.230469 C 349.988281 189.621094 350.117188 190.042969 350.265625 190.433594 C 351.011719 190.695312 351.089844 190.65625 351.539062 189.824219 C 351.746094 189.742188 352.105469 189.695312 352.132812 189.578125 C 352.234375 189.136719 351.902344 189.0625 351.539062 189.089844 C 351.464844 188.316406 352.375 188.25 352.535156 187.5625 C 353.152344 188.132812 353.675781 188.609375 354.207031 189.101562 L 355.871094 189.101562 C 355.925781 189.507812 355.984375 189.925781 356.039062 190.355469 C 353.929688 190.628906 352.242188 191.375 351.070312 192.890625 L 349.085938 191.925781 C 347.882812 192.785156 349.242188 194.1875 348.144531 194.933594 L 347.085938 193.898438 C 347.359375 193.410156 348.171875 193.167969 347.578125 192.195312 C 346.773438 191.773438 345.644531 192.140625 344.328125 191.992188 L 343.351562 192.960938 C 343.136719 194.367188 344.421875 194.472656 344.632812 195.460938 L 343.855469 196.277344 C 342.40625 197.089844 341.4375 195.199219 339.660156 195.992188 L 338.8125 196.589844 L 337.597656 195.703125 L 335.519531 195.703125 L 334.550781 196.429688 C 333.550781 196.449219 333.273438 195.238281 332.246094 195.855469 L 332.011719 196.78125 L 333.226562 197.839844 C 334.296875 198.398438 335.082031 197.222656 336.082031 197.113281 L 336.933594 197.886719 L 337.714844 197.171875 C 338.765625 196.960938 339.292969 198.511719 340.855469 197.671875 L 341.367188 197.289062 L 342.582031 198.003906 L 343.769531 197.203125 C 344.003906 197.519531 344.285156 197.902344 344.609375 198.34375 L 343.359375 198.933594 C 343.539062 199.550781 344.144531 199.257812 344.503906 199.472656 C 344.761719 199.644531 345.003906 199.835938 345.230469 200.046875 L 345.875 199.414062 L 346.8125 200.199219 L 350.34375 200.199219 L 346.980469 201.152344 L 348.492188 201.867188 C 348.019531 202.84375 346.8125 201.804688 346.214844 202.808594 C 347.4375 203.242188 348.671875 202.941406 349.859375 203.035156 C 350.914062 203.117188 352.019531 202.820312 353.488281 203.453125 C 351.96875 203.921875 350.855469 203.699219 349.804688 203.769531 L 348.386719 204.808594 C 349.75 205.703125 351.089844 204.773438 352.253906 205.523438 C 352.027344 205.789062 351.816406 206.039062 351.5625 206.34375 L 353.027344 207.023438 L 353.027344 207.792969 L 350.917969 208.867188 L 349.035156 208.867188 L 348.167969 209.621094 L 340.738281 209.621094 L 339.914062 210.371094 L 324.207031 210.371094 C 324.027344 210.550781 323.847656 210.730469 323.503906 211.058594 C 321.347656 211.191406 319.003906 211.027344 316.675781 211.144531 L 316.007812 211.796875 L 300.28125 211.796875 C 299.972656 212.097656 299.796875 212.269531 299.492188 212.570312 L 272.523438 212.570312 L 271.742188 213.332031 L 190.097656 213.332031 L 189.410156 214.003906 L 165.433594 214.003906 L 164.675781 213.34375 L 163.527344 214.199219 L 162.304688 213.285156 L 90.480469 213.285156 L 89.804688 212.621094 L 77.820312 212.621094 L 77.027344 211.847656 L 72.53125 211.847656 L 71.816406 211.152344 L 66.421875 211.152344 L 64.558594 208.882812 L 61.269531 208.882812 C 60.378906 208.070312 61.125 207.605469 61.648438 207.078125 L 61.648438 205.632812 C 62.585938 204.917969 63.035156 203.570312 64.554688 203.699219 C 64.453125 202.90625 63.886719 202.421875 63.46875 202.359375 C 62.71875 202.242188 62.476562 202.0625 62.351562 201.304688 C 62.269531 200.820312 61.609375 200.433594 61.339844 200.140625 C 59.898438 199.878906 60.386719 201.101562 59.828125 201.511719 L 59.023438 200.839844 L 56.824219 200.839844 C 56.414062 200.992188 56.289062 201.664062 55.667969 201.554688 C 55.585938 201.351562 55.539062 201 55.414062 200.972656 C 54.96875 200.875 54.890625 201.199219 54.917969 201.554688 C 54.464844 201.472656 54.226562 201.746094 54.183594 202.113281 C 54.128906 202.601562 54.21875 203.074219 54.917969 203.023438 C 55.007812 203.226562 55.082031 203.609375 55.179688 203.613281 C 56.25 203.664062 56.929688 204.96875 58.589844 204.3125 L 59.453125 203.488281 L 58.605469 202.46875 L 59.726562 202.246094 C 60.65625 202.960938 59.78125 203.910156 60.164062 204.664062 L 60.945312 205.863281 L 59.160156 205.863281 C 57.71875 207.023438 59.875 207.527344 59.414062 208.433594 C 58.578125 208.988281 58.578125 208.992188 57.628906 208.257812 L 56.464844 208.972656 L 54.898438 208.078125 L 53.726562 208.847656 C 53.636719 208.605469 53.378906 208.277344 53.457031 208.058594 C 53.695312 207.390625 54.125 206.828125 54.882812 206.597656 C 55.003906 207.066406 54.953125 207.632812 55.597656 207.132812 C 55.371094 206.9375 55.132812 206.757812 54.882812 206.597656 C 55.199219 205.527344 54.125 204.835938 53.863281 203.84375 C 53.75 203.417969 53.480469 203.035156 53.199219 202.46875 C 52.945312 202.382812 52.429688 202.328125 52.101562 202.054688 C 51.699219 201.726562 51.355469 201.445312 50.816406 201.578125 L 48.621094 199.414062 L 47.855469 200 C 47.058594 200.125 46.199219 200.324219 45.601562 199.390625 L 43.335938 199.390625 L 42.515625 200.105469 C 42.230469 199.746094 41.929688 199.371094 41.488281 198.816406 L 41.488281 197.457031 L 39.953125 196.332031 L 39.953125 194.332031 L 37.570312 192.414062 C 37.746094 191.921875 37.855469 191.601562 37.980469 191.253906 L 38.824219 191.992188 L 39.597656 191.320312 L 40.683594 192.386719 L 40.683594 193.128906 L 42.539062 194.902344 C 42.960938 194.769531 43.074219 194.101562 43.683594 194.222656 C 43.65625 194.964844 44.363281 195.1875 44.769531 195.597656 C 44.929688 195.761719 45.410156 195.621094 45.683594 195.621094 C 46.261719 194.550781 45.726562 193.789062 45.304688 193 C 45.839844 192.503906 46.488281 192.890625 47.066406 192.746094 C 47.625 191.859375 47.777344 190.6875 49.355469 190.242188 L 47.667969 189.691406 C 47.507812 189.265625 47.351562 188.84375 47.175781 188.386719 C 46.980469 188.566406 46.71875 188.675781 46.699219 188.820312 C 46.667969 189.273438 46.660156 189.726562 46.679688 190.183594 C 46.121094 190.816406 45.453125 190.4375 44.855469 190.5625 L 44.046875 189.828125 L 41.085938 189.828125 L 40.304688 189.121094 L 39.523438 189.785156 C 39.050781 189.320312 38.652344 188.59375 38.160156 188.527344 C 37.375 188.414062 36.972656 187.75 36.28125 187.632812 C 35.894531 187.597656 35.511719 187.59375 35.125 187.621094 L 34.300781 188.355469 L 33.605469 188.355469 C 33.355469 188.339844 33.109375 188.34375 32.859375 188.363281 C 32.761719 188.378906 32.679688 188.527344 32.582031 188.585938 C 31.890625 188.972656 31.195312 189.351562 30.492188 189.738281 L 29.90625 189.167969 L 27.980469 189.167969 L 25.734375 187.964844 C 26.445312 187.269531 27.417969 186.691406 27.769531 185.859375 C 28.121094 185.027344 28.515625 184.441406 29.199219 183.953125 C 30.03125 183.859375 30.335938 184.242188 30.183594 185.074219 L 31.3125 186.074219 L 33.703125 186.074219 C 33.882812 185.566406 34.042969 185.140625 34.214844 184.660156 L 35.082031 185.414062 L 37.339844 185.414062 L 38.382812 184.320312 L 36.980469 183.652344 C 37.125 183.195312 37.8125 183.082031 37.695312 182.488281 C 38.851562 182.738281 39.5625 181.726562 40.53125 181.527344 C 40.292969 180.953125 40.085938 180.359375 39.796875 179.808594 C 39.71875 179.660156 39.398438 179.628906 39.234375 179.65625 C 39.113281 179.1875 39.167969 178.621094 38.511719 179.117188 C 38.742188 179.316406 38.980469 179.496094 39.234375 179.65625 C 39.195312 180.011719 39.179688 180.367188 39.191406 180.726562 C 38.734375 181.160156 38.207031 181.640625 37.703125 182.140625 C 37.640625 182.199219 37.703125 182.367188 37.703125 182.488281 L 35.738281 182.488281 L 35.320312 183.71875 C 34.644531 184.066406 33.96875 184.113281 33.246094 183.644531 L 33.886719 182.890625 C 33.675781 182.410156 32.917969 182.152344 33.214844 181.414062 L 33.957031 180.636719 L 33.957031 178.820312 C 34.203125 178.839844 34.441406 178.804688 34.671875 178.71875 C 34.792969 179.183594 34.738281 179.75 35.382812 179.253906 C 35.160156 179.054688 34.921875 178.878906 34.671875 178.71875 C 34.953125 178.390625 35.195312 178.039062 35.398438 177.65625 L 32.730469 175.0625 C 32.21875 175.96875 32.621094 176.953125 32.28125 177.796875 C 32.042969 178.179688 31.773438 178.578125 31.730469 178.996094 C 31.695312 179.34375 31.988281 179.636719 32.445312 179.554688 C 32.351562 180.242188 32.660156 180.980469 32.148438 181.714844 L 31.355469 181.085938 L 30.566406 181.722656 L 29.898438 180.335938 C 29.484375 180.550781 29.097656 180.8125 28.746094 181.121094 C 28.621094 180.652344 28.679688 180.085938 28.023438 180.582031 C 28.25 180.78125 28.492188 180.960938 28.746094 181.121094 Z M 328.117188 184.769531 C 328.699219 184.609375 329.277344 184.664062 328.769531 184.023438 C 328.59375 184.222656 328.414062 184.421875 328.535156 184.605469 C 327.953125 184.765625 327.375 184.714844 327.882812 185.351562 C 328.054688 185.152344 328.230469 184.953125 328.117188 184.769531 Z M 48.09375 168.347656 C 48.257812 168.914062 48.203125 169.484375 48.859375 168.984375 C 48.652344 168.816406 48.449219 168.644531 48.261719 168.757812 C 48.097656 168.1875 48.152344 167.621094 47.5 168.117188 C 47.703125 168.285156 47.90625 168.457031 48.09375 168.347656 Z M 332.820312 155.347656 C 333.300781 155.214844 333.976562 155.707031 334.25 154.921875 C 333.257812 154.597656 333.257812 154.597656 332.894531 155.414062 L 332.746094 155.273438 L 332.136719 155.78125 L 332.371094 156.015625 C 332.5625 155.820312 332.714844 155.601562 332.820312 155.347656 Z M 43.019531 169.488281 C 42.855469 168.921875 42.910156 168.351562 42.253906 168.851562 C 42.453125 169.039062 42.679688 169.183594 42.933594 169.285156 L 42.933594 171.140625 L 45.089844 172.175781 L 45.089844 170.304688 L 44.0625 169.285156 C 43.671875 169.285156 43.316406 169.285156 43.019531 169.488281 Z M 48.894531 194.957031 C 50.125 194.828125 49.320312 196.226562 50.09375 196.421875 C 50.664062 196.296875 51.324219 196.679688 51.828125 196.152344 C 51.863281 195.917969 51.894531 195.6875 51.925781 195.4375 C 51.367188 194.332031 50.117188 194.195312 49.027344 193.5 C 48.976562 194.039062 48.9375 194.496094 48.925781 194.953125 C 48.160156 195.386719 48.160156 195.386719 48.488281 196.359375 C 49.289062 196.089844 48.789062 195.425781 48.894531 194.957031 Z M 56.859375 166.453125 C 57.5625 166.15625 58.222656 165.621094 58.820312 165.679688 C 59.644531 165.765625 60.039062 165.132812 60.675781 165.015625 L 61.210938 165.535156 L 69.644531 165.535156 L 70.734375 164.386719 L 70.375 163.421875 L 69.546875 163.421875 L 68.746094 164.148438 L 57.550781 164.148438 C 57.191406 164.617188 56.550781 164.863281 56.390625 165.632812 Z M 50.789062 167.167969 C 51.679688 165.792969 52.988281 166.671875 53.917969 166.105469 L 55.742188 165.171875 C 55.636719 164.816406 55.539062 164.496094 55.441406 164.179688 L 53.96875 165.007812 L 53.03125 164.148438 L 50.8125 164.148438 L 50.039062 164.835938 L 49.332031 164.253906 L 48.082031 165.011719 L 47.128906 164.257812 C 46.773438 164.457031 46.414062 164.734375 46.015625 164.859375 C 45.570312 165.003906 45.082031 165 44.617188 165.078125 C 44.566406 165.078125 44.546875 165.238281 44.523438 165.304688 L 45.542969 166.347656 L 47.039062 166.347656 L 47.816406 167.042969 L 48.625 166.34375 C 49.375 166.394531 50.183594 166.101562 50.78125 167.175781 Z M 57.773438 190.65625 C 57.078125 190.941406 56.65625 191.109375 56.238281 191.285156 C 55.445312 191.621094 55.039062 190.800781 54.308594 190.660156 C 54.25 191.015625 54.195312 191.339844 54.148438 191.632812 C 54.628906 192.101562 55.125 192.484375 55.480469 192.96875 C 55.730469 193.316406 55.792969 193.796875 55.96875 194.3125 L 57.714844 194.3125 C 57.894531 194.847656 58.046875 195.273438 58.125 195.492188 L 59.453125 194.695312 C 59.40625 193.894531 59.382812 193.429688 59.363281 193.070312 C 58.609375 192.3125 57.800781 191.75 57.773438 190.65625 Z M 337.675781 161.953125 C 337.113281 162.074219 336.460938 161.703125 335.773438 162.347656 C 336.117188 162.835938 335.382812 163.597656 336.214844 164.144531 L 338.421875 164.144531 L 339.199219 163.453125 L 340.039062 164.167969 C 340.539062 164.136719 341.027344 164.117188 341.507812 164.058594 C 341.605469 164.046875 341.6875 163.898438 341.792969 163.792969 C 340.988281 163.140625 340.527344 162.050781 339.316406 161.886719 L 338.449219 162.640625 Z M 61.277344 193.492188 C 62.125 193.394531 62.984375 193.710938 63.839844 193.238281 C 63.605469 192.878906 63.292969 192.554688 63.183594 192.175781 C 63.023438 191.640625 63.390625 190.984375 62.765625 190.554688 C 61.949219 190.648438 61.089844 190.335938 60.234375 190.804688 L 60.234375 192.414062 Z M 330.4375 181.523438 C 330.519531 180.496094 329.34375 181.433594 329.199219 180.773438 C 329.0625 180.355469 328.921875 179.9375 328.785156 179.523438 C 328.113281 179.675781 327.464844 179.300781 326.8125 179.921875 C 326.851562 180.371094 326.890625 180.9375 326.957031 181.5 C 326.972656 181.59375 327.113281 181.675781 327.179688 181.75 C 328.191406 181.75 329.171875 181.75 330.152344 181.738281 C 330.246094 181.742188 330.34375 181.605469 330.4375 181.523438 Z M 353.042969 166.738281 C 353.15625 167.066406 352.742188 167.699219 352.785156 167.699219 L 355.40625 166.027344 C 355.160156 165.246094 355.570312 164.566406 354.871094 164.148438 C 354.300781 164.277344 353.636719 163.890625 353.132812 164.417969 C 352.753906 165.160156 353.3125 165.527344 353.761719 165.957031 Z M 330.925781 150.214844 C 331.265625 149.804688 331.832031 149.574219 331.960938 148.917969 C 331.414062 148.738281 331.292969 147.941406 330.550781 148.003906 C 328.855469 149.257812 328.710938 149.550781 329.480469 150.210938 Z M 343.683594 164.148438 L 345.289062 164.148438 C 345.46875 163.957031 345.644531 163.613281 345.949219 163.433594 C 346.25 163.257812 346.902344 163.671875 346.949219 162.679688 C 345.632812 162.679688 344.324219 162.667969 343.011719 162.699219 C 342.882812 162.699219 342.765625 162.976562 342.640625 163.121094 Z M 322.714844 181.753906 C 323.289062 181.625 323.945312 182.007812 324.472656 181.5 C 324.402344 180.785156 323.796875 181.113281 323.414062 180.980469 C 322.722656 180.300781 322.023438 179.613281 321.316406 178.933594 C 321.277344 178.898438 321.136719 178.953125 321.058594 178.96875 C 320.882812 179.949219 320.882812 179.949219 322.714844 181.753906 Z M 349.363281 163.84375 L 349.054688 162.320312 L 347.804688 163.796875 C 348.015625 163.984375 350.71875 165.632812 350.839844 165.605469 C 351.054688 165.53125 351.261719 165.4375 351.460938 165.324219 C 351.136719 164.285156 349.957031 164.394531 349.363281 163.84375 Z M 46.480469 184.6875 C 44.480469 184.699219 44.480469 184.699219 43.664062 185.261719 C 44.125 185.328125 44.464844 185.429688 44.796875 185.410156 C 45.625 185.355469 46.488281 185.636719 47.277344 185.214844 C 47.425781 184.527344 47.703125 183.839844 46.996094 183.164062 C 46.84375 183.617188 46.707031 184.023438 46.480469 184.6875 Z M 39.1875 184.292969 C 39.605469 184.628906 39.84375 185.1875 40.6875 185.34375 C 40.6875 184.507812 40.707031 183.707031 40.667969 182.90625 C 40.667969 182.785156 40.378906 182.679688 40.222656 182.570312 C 39.910156 183.0625 39.183594 183.238281 39.1875 184.296875 Z M 333.570312 179.1875 L 332.546875 178.183594 C 331.871094 178.140625 331.148438 177.78125 330.519531 178.515625 C 330.976562 178.664062 331.441406 178.730469 331.804688 178.953125 C 332.164062 179.179688 332.433594 179.667969 333.019531 179.542969 Z M 336.605469 150.539062 C 336.960938 150.929688 337.222656 151.445312 337.855469 151.546875 L 338.746094 150.605469 L 337.722656 149.460938 Z M 52.03125 191.957031 L 51.75 190.507812 L 50.347656 190.765625 C 50.441406 191.257812 50.507812 191.585938 50.578125 191.957031 Z M 122.117188 133.773438 C 123.925781 134.109375 123.925781 134.09375 124.453125 133.582031 C 123.789062 133.214844 123.128906 133.214844 122.117188 133.773438 Z M 341.304688 154.800781 C 341.742188 154.1875 342.339844 153.976562 342.425781 153.371094 C 341.988281 153.046875 341.574219 153.011719 341.042969 153.515625 C 341.109375 153.835938 341.191406 154.242188 341.304688 154.800781 Z M 329.722656 177.945312 C 328.179688 177.320312 328.183594 177.339844 327.636719 177.945312 C 327.996094 178.007812 328.355469 178.050781 328.71875 178.070312 C 329.054688 178.050781 329.390625 178.007812 329.722656 177.945312 Z M 335.078125 194.589844 C 334.316406 193.976562 333.570312 193.976562 332.808594 194.589844 C 333.570312 195.203125 334.316406 195.203125 335.078125 194.589844 Z M 56.726562 197.984375 C 57.308594 197.371094 57.277344 196.964844 56.839844 196.414062 L 56.007812 196.539062 C 56.226562 196.980469 56.472656 197.472656 56.726562 197.984375 Z M 319.480469 148.644531 L 319.953125 148.617188 C 320 148.292969 320.0625 147.96875 320.074219 147.644531 C 320.074219 147.5625 319.894531 147.394531 319.835938 147.410156 C 319.65625 147.457031 319.367188 147.570312 319.363281 147.667969 C 319.367188 148 319.410156 148.324219 319.480469 148.648438 Z M 323.140625 148.378906 C 322.460938 147.902344 321.984375 147.6875 321.671875 148.484375 C 322.113281 148.886719 322.527344 148.859375 323.140625 148.378906 Z M 343.410156 151.816406 C 343.410156 151.972656 343.421875 152.128906 343.429688 152.28125 C 343.765625 152.324219 344.097656 152.386719 344.433594 152.398438 C 344.515625 152.398438 344.6875 152.21875 344.671875 152.164062 C 344.621094 151.984375 344.507812 151.707031 344.402344 151.703125 C 344.070312 151.710938 343.738281 151.75 343.410156 151.820312 Z M 345.554688 154.246094 C 345.050781 153.71875 344.550781 153.71875 344.050781 154.246094 C 344.550781 154.773438 345.054688 154.773438 345.554688 154.25 Z M 347.902344 165.753906 C 347.902344 165.90625 347.914062 166.0625 347.921875 166.21875 C 348.253906 166.261719 348.585938 166.324219 348.921875 166.335938 C 349.003906 166.335938 349.179688 166.15625 349.160156 166.101562 C 349.109375 165.921875 348.996094 165.644531 348.894531 165.636719 C 348.5625 165.644531 348.230469 165.683594 347.90625 165.757812 Z M 56.792969 206.75 C 57.277344 206.082031 57.496094 205.617188 56.683594 205.320312 C 56.277344 205.742188 56.300781 206.144531 56.792969 206.75 Z M 67.277344 192.019531 C 66.742188 192.511719 66.742188 193 67.277344 193.492188 C 67.816406 193 67.816406 192.511719 67.277344 192.019531 Z M 328.324219 176.253906 C 328.824219 176.78125 329.324219 176.78125 329.824219 176.253906 C 329.324219 175.730469 328.824219 175.730469 328.324219 176.253906 Z M 346.410156 175.292969 L 346.429688 175.757812 C 346.765625 175.800781 347.097656 175.859375 347.429688 175.871094 C 347.511719 175.871094 347.6875 175.695312 347.667969 175.640625 C 347.621094 175.460938 347.507812 175.183594 347.402344 175.175781 C 347.070312 175.183594 346.738281 175.222656 346.410156 175.292969 Z M 317.199219 147.753906 L 317.464844 148.015625 C 317.5625 147.859375 317.640625 147.695312 317.699219 147.519531 C 317.710938 147.460938 317.546875 147.363281 317.464844 147.28125 C 317.375 147.441406 317.285156 147.597656 317.199219 147.753906 Z M 347.542969 147.386719 L 347.058594 147.648438 C 347.144531 147.726562 347.238281 147.890625 347.304688 147.875 C 347.480469 147.820312 347.648438 147.742188 347.808594 147.648438 Z M 328.058594 149.382812 L 328.324219 149.125 C 328.167969 149.027344 328 148.949219 327.824219 148.894531 C 327.761719 148.882812 327.660156 149.042969 327.578125 149.125 Z M 186.652344 149.953125 L 186.382812 149.480469 C 186.300781 149.5625 186.136719 149.660156 186.152344 149.722656 C 186.210938 149.894531 186.289062 150.058594 186.382812 150.214844 Z M 335.34375 150.109375 L 335.828125 149.847656 C 335.742188 149.765625 335.648438 149.605469 335.578125 149.617188 C 335.402344 149.675781 335.234375 149.75 335.078125 149.847656 Z M 335.71875 155.085938 C 335.632812 154.933594 335.539062 154.773438 335.453125 154.613281 C 335.367188 154.695312 335.203125 154.792969 335.21875 154.855469 C 335.273438 155.03125 335.351562 155.195312 335.453125 155.347656 Z M 107.996094 159.488281 L 107.726562 159.015625 C 107.644531 159.097656 107.480469 159.195312 107.496094 159.257812 C 107.550781 159.429688 107.628906 159.59375 107.726562 159.75 Z M 93.605469 161.320312 L 93.121094 161.582031 C 93.207031 161.664062 93.300781 161.824219 93.367188 161.8125 C 93.542969 161.753906 93.710938 161.679688 93.871094 161.582031 Z M 76.910156 164.042969 L 77.390625 163.785156 C 77.308594 163.703125 77.214844 163.539062 77.144531 163.554688 C 76.96875 163.609375 76.800781 163.6875 76.644531 163.785156 Z M 38.332031 169.023438 C 38.246094 168.871094 38.15625 168.710938 38.066406 168.550781 C 37.984375 168.632812 37.820312 168.730469 37.832031 168.792969 C 37.890625 168.964844 37.96875 169.128906 38.066406 169.285156 Z M 60.539062 169.285156 C 60.453125 169.367188 60.289062 169.464844 60.300781 169.527344 C 60.359375 169.699219 60.441406 169.863281 60.539062 170.015625 C 60.621094 169.9375 60.785156 169.839844 60.773438 169.777344 C 60.714844 169.601562 60.636719 169.441406 60.539062 169.285156 Z M 49.941406 170.125 L 49.675781 170.386719 C 49.835938 170.480469 50.003906 170.558594 50.179688 170.613281 C 50.242188 170.625 50.34375 170.464844 50.425781 170.386719 Z M 39.296875 172.691406 L 39.566406 172.953125 C 39.660156 172.796875 39.738281 172.632812 39.796875 172.460938 C 39.8125 172.398438 39.648438 172.300781 39.566406 172.21875 Z M 36.300781 174.15625 L 36.566406 174.417969 C 36.664062 174.265625 36.742188 174.101562 36.800781 173.925781 C 36.816406 173.867188 36.652344 173.765625 36.566406 173.6875 Z M 326.722656 175.625 L 326.457031 175.152344 C 326.371094 175.234375 326.207031 175.332031 326.222656 175.394531 C 326.277344 175.566406 326.355469 175.730469 326.457031 175.886719 C 326.539062 175.804688 326.621094 175.722656 326.71875 175.625 Z M 324.691406 179.8125 L 324.957031 180.289062 C 325.039062 180.207031 325.207031 180.109375 325.191406 180.046875 C 325.132812 179.871094 325.054688 179.707031 324.957031 179.554688 Z M 48.285156 183.480469 L 48.550781 183.953125 C 48.636719 183.871094 48.800781 183.773438 48.789062 183.710938 C 48.730469 183.539062 48.652344 183.375 48.550781 183.222656 Z M 337.421875 184.425781 L 337.691406 184.6875 C 337.789062 184.53125 337.863281 184.367188 337.921875 184.195312 C 337.9375 184.132812 337.773438 184.035156 337.691406 183.953125 C 337.597656 184.113281 337.507812 184.273438 337.421875 184.425781 Z M 66.046875 190.816406 C 65.945312 190.71875 65.867188 190.636719 65.78125 190.554688 C 65.683594 190.710938 65.605469 190.875 65.546875 191.046875 C 65.53125 191.109375 65.699219 191.207031 65.78125 191.289062 C 65.871094 191.128906 65.960938 190.96875 66.046875 190.816406 Z M 53.15625 191.917969 L 53.421875 191.65625 C 53.261719 191.558594 53.09375 191.484375 52.917969 191.425781 C 52.859375 191.414062 52.753906 191.574219 52.671875 191.65625 Z M 339.449219 192.285156 C 339.347656 192.183594 339.269531 192.105469 339.183594 192.023438 C 339.085938 192.175781 339.007812 192.339844 338.949219 192.515625 C 338.933594 192.574219 339.097656 192.675781 339.183594 192.753906 Z M 51.925781 193.121094 C 51.839844 193.039062 51.746094 192.878906 51.675781 192.890625 C 51.5 192.949219 51.332031 193.027344 51.171875 193.121094 C 51.253906 193.203125 51.347656 193.363281 51.417969 193.351562 C 51.59375 193.292969 51.761719 193.21875 51.925781 193.121094 Z M 61.769531 197.625 L 62.035156 197.886719 C 62.132812 197.730469 62.210938 197.566406 62.269531 197.394531 C 62.285156 197.335938 62.121094 197.234375 62.035156 197.152344 C 61.945312 197.316406 61.855469 197.476562 61.769531 197.625 Z M 61.769531 197.625 " fill-opacity="1" fill-rule="nonzero"/></g><g clip-path="url(#id2)"><path fill="#1a9168" d="M 365.734375 153.816406 C 365.773438 153.449219 365.789062 153.082031 365.777344 152.710938 L 366.90625 152.273438 C 367.410156 152.925781 367.925781 153.597656 368.542969 154.398438 L 368.105469 154.957031 C 368.054688 155.4375 367.992188 156.011719 367.925781 156.683594 C 367.570312 156.722656 367.09375 156.917969 366.914062 156.769531 C 366.085938 156.074219 365.339844 155.277344 364.476562 154.433594 L 362.992188 155.324219 L 361.996094 153.894531 L 360.765625 153.894531 L 360.511719 152.726562 L 361.941406 152.171875 C 361.664062 151.691406 361.40625 151.230469 361.089844 150.691406 L 362.414062 149.976562 L 363.277344 151.570312 L 362.800781 152.082031 C 363.335938 152.347656 363.871094 152.566406 364.351562 152.863281 C 364.832031 153.164062 365.097656 153.816406 365.738281 153.816406 C 365.859375 154.246094 365.804688 154.8125 366.453125 154.316406 C 366.234375 154.121094 365.996094 153.953125 365.734375 153.816406 Z M 365.734375 153.816406 " fill-opacity="1" fill-rule="nonzero"/></g><path fill="#1a9168" d="M 68.796875 134.8125 L 68.003906 135.527344 L 67.367188 134.90625 L 62.699219 134.90625 L 62.136719 135.449219 L 60.886719 134.722656 L 59.683594 135.527344 L 58.324219 135.527344 C 57.710938 135.085938 57.769531 134.59375 58.285156 134.097656 L 59.070312 134.796875 L 59.75 134.132812 L 73.910156 134.132812 L 75.027344 133.238281 L 76.679688 134.183594 L 77.792969 133.433594 C 78.261719 133.679688 78.203125 134.109375 78.054688 134.535156 C 77.9375 134.648438 77.851562 134.8125 77.765625 134.8125 C 74.769531 134.8125 71.773438 134.8125 68.796875 134.8125 Z M 68.796875 134.8125 " fill-opacity="1" fill-rule="nonzero"/><path fill="#1a9168" d="M 50.425781 135.546875 C 50.339844 135.75 50.246094 135.957031 50.148438 136.222656 L 41.117188 136.222656 L 40.441406 136.886719 C 39.617188 137.230469 38.636719 136.898438 37.691406 137.011719 C 37.777344 136.804688 37.804688 136.492188 37.960938 136.410156 C 38.460938 136.148438 39.003906 135.96875 39.960938 135.585938 L 43.089844 135.585938 L 44.320312 134.734375 L 46 135.640625 L 47.078125 134.859375 L 47.832031 135.539062 Z M 50.425781 135.546875 " fill-opacity="1" fill-rule="nonzero"/><path fill="#1a9168" d="M 359.9375 151.351562 L 358.027344 152.699219 L 359.027344 154.421875 L 359.027344 155.734375 L 357.183594 157.539062 C 356.753906 157.003906 355.902344 156.757812 356.058594 155.742188 L 357.46875 155.066406 C 357.898438 154.207031 356.980469 153.832031 356.667969 153.40625 C 357.648438 151.796875 358.242188 151.183594 359.089844 150.976562 C 359.261719 150.925781 359.5 151.140625 359.9375 151.351562 Z M 359.9375 151.351562 " fill-opacity="1" fill-rule="nonzero"/><path fill="#1a9168" d="M 286.378906 133.34375 L 287.484375 133.34375 L 288.273438 132.632812 C 288.464844 132.808594 288.640625 132.988281 288.9375 133.28125 L 296.433594 133.28125 C 296.96875 133.78125 296.996094 134.199219 296.613281 134.726562 L 294.914062 134.726562 L 294.257812 134.082031 L 286.695312 134.082031 Z M 286.378906 133.34375 " fill-opacity="1" fill-rule="nonzero"/><path fill="#1a9168" d="M 362.785156 167.082031 L 365.441406 167.082031 L 366.558594 168.335938 L 365.25 169.144531 C 364.945312 169.980469 365.238281 170.546875 364.507812 170.683594 L 364.039062 169.394531 L 362.328125 169.214844 C 362.046875 168.9375 362.046875 168.9375 362.785156 168.175781 Z M 362.785156 167.082031 " fill-opacity="1" fill-rule="nonzero"/><path fill="#1a9168" d="M 302.105469 134.597656 C 302.160156 134.175781 302.214844 133.765625 302.285156 133.207031 L 303.226562 134.0625 L 303.992188 133.359375 L 304.636719 133.992188 C 305.886719 134.339844 307.371094 133.804688 308.839844 134.269531 C 307.6875 134.960938 307.105469 134.984375 302.105469 134.597656 Z M 302.105469 134.597656 " fill-opacity="1" fill-rule="nonzero"/><path fill="#1a9168" d="M 281.136719 132.609375 C 282.699219 132.609375 284.261719 132.589844 285.824219 132.628906 C 285.914062 132.625 286 132.640625 286.078125 132.679688 C 286.160156 132.71875 286.230469 132.773438 286.285156 132.84375 C 286.339844 132.914062 286.375 132.992188 286.390625 133.082031 C 286.40625 133.167969 286.402344 133.257812 286.378906 133.34375 L 285.292969 133.34375 C 285.046875 133.566406 284.792969 133.800781 284.519531 134.058594 L 283.683594 133.300781 L 281.402344 133.300781 Z M 281.136719 132.609375 " fill-opacity="1" fill-rule="nonzero"/><path fill="#1a9168" d="M 22.394531 169.765625 L 20.769531 170.085938 L 20.136719 171.480469 L 19.351562 171.480469 C 18.558594 170.824219 19.785156 170.6875 19.726562 170.203125 C 19.695312 169.773438 19.691406 169.34375 19.714844 168.917969 L 20.070312 168.570312 C 20.484375 169.191406 21.222656 169.234375 22.394531 169.765625 Z M 22.394531 169.765625 " fill-opacity="1" fill-rule="nonzero"/><path fill="#1a9168" d="M 57.304688 135.089844 C 56.925781 135.394531 56.835938 135.53125 56.742188 135.53125 C 55.511719 135.546875 54.28125 135.546875 53.046875 135.53125 C 52.960938 135.53125 52.867188 135.375 52.785156 135.289062 C 53.753906 134.714844 53.753906 134.714844 57.304688 135.089844 Z M 57.304688 135.089844 " fill-opacity="1" fill-rule="nonzero"/><path fill="#1a9168" d="M 30.199219 137.746094 C 29.539062 138.5 28.261719 139.097656 27.367188 139.027344 C 27.390625 138.375 28.027344 138.175781 28.335938 137.746094 Z M 30.199219 137.746094 " fill-opacity="1" fill-rule="nonzero"/><path fill="#1a9168" d="M 36.128906 158.910156 L 36.128906 160.339844 L 34.910156 160.566406 C 34.824219 160.109375 34.746094 159.699219 34.648438 159.191406 Z M 36.128906 158.910156 " fill-opacity="1" fill-rule="nonzero"/><path fill="#1a9168" d="M 340.996094 140.574219 L 340.996094 142.003906 L 339.777344 142.230469 C 339.691406 141.773438 339.613281 141.363281 339.515625 140.855469 Z M 340.996094 140.574219 " fill-opacity="1" fill-rule="nonzero"/><path fill="#1a9168" d="M 30.207031 137.59375 C 31.164062 136.699219 32.152344 137.148438 33.144531 137.246094 C 32.25 138.058594 31.164062 137.507812 30.207031 137.59375 Z M 30.207031 137.59375 " fill-opacity="1" fill-rule="nonzero"/><path fill="#1a9168" d="M 24.46875 168.660156 C 25.203125 168.71875 24.804688 169.328125 24.988281 169.644531 C 25.148438 169.921875 25.523438 170.089844 26.070312 170.527344 L 24.507812 170.753906 C 24.101562 169.953125 24.058594 169.304688 24.46875 168.660156 Z M 24.46875 168.660156 " fill-opacity="1" fill-rule="nonzero"/><path fill="#1a9168" d="M 358.152344 147.90625 L 359.960938 148.242188 C 359.355469 148.691406 359.132812 149.257812 358.429688 149.371094 C 358.371094 149.035156 358.304688 148.714844 358.152344 147.90625 Z M 358.152344 147.90625 " fill-opacity="1" fill-rule="nonzero"/><path fill="#1a9168" d="M 350.824219 151.671875 C 350.789062 152.117188 350.757812 152.550781 350.726562 152.992188 C 349.890625 153.101562 349.894531 152.238281 349.332031 152.214844 C 349.640625 151.320312 350.320312 151.820312 350.824219 151.671875 Z M 350.824219 151.671875 " fill-opacity="1" fill-rule="nonzero"/><path fill="#1a9168" d="M 350.742188 156.816406 C 350.847656 156.15625 350.910156 155.753906 350.996094 155.207031 C 351.40625 155.589844 351.671875 155.8125 351.902344 156.066406 C 352.011719 156.21875 352.105469 156.386719 352.175781 156.558594 C 351.972656 156.640625 351.769531 156.738281 351.558594 156.804688 C 351.449219 156.84375 351.320312 156.816406 350.742188 156.816406 Z M 350.742188 156.816406 " fill-opacity="1" fill-rule="nonzero"/><path fill="#1a9168" d="M 15.96875 172.953125 L 15.96875 171.925781 C 16.355469 171.210938 16.875 171.578125 17.535156 171.484375 C 17.050781 172.324219 16.695312 172.84375 15.96875 172.953125 Z M 15.96875 172.953125 " fill-opacity="1" fill-rule="nonzero"/><path fill="#1a9168" d="M 51.925781 207.421875 L 50.875 207.421875 C 50.226562 207.035156 50.265625 206.566406 50.695312 206.042969 C 51.28125 206.363281 51.8125 206.714844 51.925781 207.421875 Z M 51.925781 207.421875 " fill-opacity="1" fill-rule="nonzero"/><path fill="#1a9168" d="M 298.304688 133.710938 C 298.917969 133.230469 299.332031 133.207031 299.773438 133.601562 C 299.464844 134.398438 298.984375 134.183594 298.304688 133.710938 Z M 298.304688 133.710938 " fill-opacity="1" fill-rule="nonzero"/><path fill="#1a9168" d="M 50.363281 135.648438 C 50.867188 134.792969 50.867188 134.792969 51.863281 135.113281 C 51.574219 135.878906 50.890625 135.367188 50.363281 135.648438 Z M 50.363281 135.648438 " fill-opacity="1" fill-rule="nonzero"/><path fill="#1a9168" d="M 37.691406 137.011719 C 37.25 137.761719 37.25 137.761719 36.265625 137.441406 C 36.535156 136.65625 37.210938 137.144531 37.691406 137.011719 Z M 37.691406 137.011719 " fill-opacity="1" fill-rule="nonzero"/><path fill="#1a9168" d="M 344.703125 142.738281 C 344.375 142.808594 344.042969 142.847656 343.707031 142.855469 C 343.605469 142.855469 343.492188 142.566406 343.441406 142.390625 C 343.425781 142.339844 343.601562 142.15625 343.683594 142.160156 C 344.015625 142.171875 344.347656 142.234375 344.683594 142.277344 C 344.6875 142.429688 344.695312 142.59375 344.703125 142.738281 Z M 344.703125 142.738281 " fill-opacity="1" fill-rule="nonzero"/><path fill="#1a9168" d="M 353.761719 155 C 354.351562 154.4375 354.761719 154.589844 355.234375 154.792969 C 354.894531 155.671875 354.417969 155.460938 353.761719 155 Z M 353.761719 155 " fill-opacity="1" fill-rule="nonzero"/><path fill="#1a9168" d="M 34.320312 161.949219 C 34.859375 162.4375 34.859375 162.929688 34.320312 163.417969 C 33.785156 162.929688 33.785156 162.4375 34.320312 161.949219 Z M 34.320312 161.949219 " fill-opacity="1" fill-rule="nonzero"/><path fill="#1a9168" d="M 32.070312 163.359375 C 32.558594 163.960938 32.585938 164.367188 32.179688 164.789062 C 31.371094 164.492188 31.589844 164.035156 32.070312 163.359375 Z M 32.070312 163.359375 " fill-opacity="1" fill-rule="nonzero"/><path fill="#1a9168" d="M 51.925781 204.859375 C 51.421875 205.382812 50.921875 205.382812 50.425781 204.859375 C 50.921875 204.332031 51.421875 204.332031 51.925781 204.859375 Z M 51.925781 204.859375 " fill-opacity="1" fill-rule="nonzero"/><path fill="#1a9168" d="M 55.667969 201.554688 C 55.667969 201.886719 55.765625 202.257812 55.636719 202.535156 C 55.535156 202.757812 55.167969 202.863281 54.925781 203.023438 L 54.925781 201.554688 Z M 55.667969 201.554688 " fill-opacity="1" fill-rule="nonzero"/><path fill="#1a9168" d="M 43.683594 194.230469 L 43.683594 192.765625 C 44.386719 192.710938 44.476562 193.183594 44.417969 193.675781 C 44.375 194.03125 44.140625 194.304688 43.683594 194.230469 Z M 43.683594 194.230469 " fill-opacity="1" fill-rule="nonzero"/><path fill="#1a9168" d="M 43.683594 192.753906 C 42.917969 192.324219 42.917969 192.324219 43.246094 191.351562 C 44.046875 191.625 43.546875 192.285156 43.683594 192.753906 Z M 43.683594 192.753906 " fill-opacity="1" fill-rule="nonzero"/><path fill="#1a9168" d="M 24.582031 186.886719 C 25.121094 187.378906 25.121094 187.867188 24.582031 188.355469 C 24.046875 187.867188 24.046875 187.375 24.582031 186.886719 Z M 24.582031 186.886719 " fill-opacity="1" fill-rule="nonzero"/><path fill="#1a9168" d="M 25.707031 185.785156 C 25.207031 186.3125 24.707031 186.3125 24.207031 185.785156 C 24.707031 185.261719 25.210938 185.261719 25.707031 185.785156 Z M 25.707031 185.785156 " fill-opacity="1" fill-rule="nonzero"/><path fill="#1a9168" d="M 32.449219 183.585938 C 31.949219 184.113281 31.449219 184.113281 30.949219 183.585938 C 31.449219 183.058594 31.949219 183.058594 32.449219 183.585938 Z M 32.449219 183.585938 " fill-opacity="1" fill-rule="nonzero"/><path fill="#1a9168" d="M 24.957031 172.953125 C 25.09375 172.480469 24.601562 171.820312 25.394531 171.546875 C 25.722656 172.519531 25.722656 172.519531 24.957031 172.953125 Z M 24.957031 172.953125 " fill-opacity="1" fill-rule="nonzero"/><path fill="#1a9168" d="M 301.09375 133.449219 L 301.359375 133.710938 C 301.199219 133.808594 301.035156 133.882812 300.855469 133.941406 C 300.796875 133.953125 300.695312 133.792969 300.609375 133.710938 Z M 301.09375 133.449219 " fill-opacity="1" fill-rule="nonzero"/><path fill="#1a9168" d="M 310.238281 134.554688 L 309.972656 134.816406 C 309.875 134.660156 309.796875 134.496094 309.742188 134.324219 C 309.726562 134.261719 309.890625 134.164062 309.972656 134.082031 C 310.0625 134.238281 310.15625 134.394531 310.238281 134.554688 Z M 310.238281 134.554688 " fill-opacity="1" fill-rule="nonzero"/><path fill="#1a9168" d="M 34.589844 136.539062 L 34.320312 137.011719 C 34.238281 136.929688 34.070312 136.832031 34.085938 136.769531 C 34.144531 136.597656 34.222656 136.433594 34.320312 136.28125 Z M 34.589844 136.539062 " fill-opacity="1" fill-rule="nonzero"/><path fill="#1a9168" d="M 17.253906 145.898438 C 17.5625 145.539062 17.734375 145.347656 17.910156 145.148438 C 18.417969 145.789062 17.839844 145.734375 17.253906 145.898438 Z M 17.253906 145.898438 " fill-opacity="1" fill-rule="nonzero"/><path fill="#1a9168" d="M 17.675781 145.730469 L 17.023438 146.480469 C 16.515625 145.839844 17.09375 145.890625 17.675781 145.730469 Z M 17.675781 145.730469 " fill-opacity="1" fill-rule="nonzero"/><path fill="#1a9168" d="M 357.625 151.886719 L 356.859375 151.246094 C 357.515625 150.75 357.457031 151.316406 357.625 151.886719 Z M 357.625 151.886719 " fill-opacity="1" fill-rule="nonzero"/><path fill="#1a9168" d="M 24.691406 160.375 L 24.21875 160.117188 C 24.300781 160.035156 24.394531 159.871094 24.464844 159.886719 C 24.640625 159.945312 24.808594 160.019531 24.96875 160.117188 Z M 24.691406 160.375 " fill-opacity="1" fill-rule="nonzero"/><path fill="#1a9168" d="M 29.535156 163.621094 L 28.773438 162.980469 C 29.425781 162.484375 29.371094 163.054688 29.535156 163.621094 Z M 29.535156 163.621094 " fill-opacity="1" fill-rule="nonzero"/><path fill="#1a9168" d="M 30.199219 164.148438 C 29.683594 164.171875 29.433594 163.925781 29.453125 163.417969 C 29.96875 163.398438 30.21875 163.640625 30.199219 164.148438 Z M 30.199219 164.148438 " fill-opacity="1" fill-rule="nonzero"/><path fill="#1a9168" d="M 30.109375 163.945312 L 30.875 164.585938 C 30.226562 165.082031 30.285156 164.515625 30.109375 163.945312 Z M 30.109375 163.945312 " fill-opacity="1" fill-rule="nonzero"/><path fill="#1a9168" d="M 362.296875 164.777344 L 362.03125 164.515625 C 362.1875 164.421875 362.355469 164.34375 362.535156 164.289062 C 362.59375 164.273438 362.695312 164.4375 362.78125 164.515625 Z M 362.296875 164.777344 " fill-opacity="1" fill-rule="nonzero"/><path fill="#1a9168" d="M 362.867188 167.289062 L 362.101562 166.648438 C 362.757812 166.152344 362.703125 166.714844 362.867188 167.289062 Z M 362.867188 167.289062 " fill-opacity="1" fill-rule="nonzero"/><path fill="#1a9168" d="M 29.558594 168.289062 L 29.824219 167.816406 C 29.910156 167.898438 30.074219 167.996094 30.0625 168.058594 C 30.003906 168.234375 29.925781 168.394531 29.824219 168.550781 Z M 29.558594 168.289062 " fill-opacity="1" fill-rule="nonzero"/><path fill="#1a9168" d="M 31.324219 170.75 C 31.421875 170.90625 31.5 171.070312 31.558594 171.242188 C 31.574219 171.304688 31.40625 171.402344 31.324219 171.484375 C 31.226562 171.332031 31.148438 171.167969 31.089844 170.992188 C 31.078125 170.933594 31.242188 170.824219 31.324219 170.75 Z M 31.324219 170.75 " fill-opacity="1" fill-rule="nonzero"/><g clip-path="url(#id3)"><path fill="#1a9168" d="M 12.308594 173.890625 L 11.542969 173.25 C 12.199219 172.753906 12.144531 173.328125 12.308594 173.890625 Z M 12.308594 173.890625 " fill-opacity="1" fill-rule="nonzero"/></g><path fill="#1a9168" d="M 16.183594 172.867188 L 15.53125 173.617188 C 15.015625 172.96875 15.597656 173.03125 16.183594 172.867188 Z M 16.183594 172.867188 " fill-opacity="1" fill-rule="nonzero"/><path fill="#1a9168" d="M 12.136719 173.480469 L 12.902344 174.121094 C 12.257812 174.617188 12.304688 174.050781 12.136719 173.480469 Z M 12.136719 173.480469 " fill-opacity="1" fill-rule="nonzero"/><path fill="#1a9168" d="M 33.945312 178.820312 L 33.199219 178.820312 C 33.28125 178.617188 33.328125 178.265625 33.449219 178.238281 C 33.898438 178.136719 33.972656 178.464844 33.945312 178.820312 Z M 33.945312 178.820312 " fill-opacity="1" fill-rule="nonzero"/><path fill="#1a9168" d="M 33.199219 178.820312 C 33.21875 179.328125 32.96875 179.570312 32.449219 179.554688 C 32.429688 179.042969 32.679688 178.800781 33.199219 178.820312 Z M 33.199219 178.820312 " fill-opacity="1" fill-rule="nonzero"/><path fill="#1a9168" d="M 24.847656 180.757812 L 24.582031 181.019531 C 24.484375 180.863281 24.40625 180.699219 24.347656 180.527344 C 24.335938 180.46875 24.5 180.367188 24.582031 180.289062 Z M 24.847656 180.757812 " fill-opacity="1" fill-rule="nonzero"/><path fill="#1a9168" d="M 349.839844 184.046875 L 350.492188 183.296875 C 351 183.929688 350.421875 183.867188 349.839844 184.046875 Z M 349.839844 184.046875 " fill-opacity="1" fill-rule="nonzero"/><path fill="#1a9168" d="M 334.050781 184.582031 L 333.570312 184.320312 C 333.652344 184.242188 333.75 184.078125 333.816406 184.09375 C 333.992188 184.152344 334.160156 184.226562 334.316406 184.320312 Z M 334.050781 184.582031 " fill-opacity="1" fill-rule="nonzero"/><path fill="#1a9168" d="M 342.765625 183.867188 L 342.113281 184.617188 C 341.605469 183.980469 342.1875 184.03125 342.765625 183.867188 Z M 342.765625 183.867188 " fill-opacity="1" fill-rule="nonzero"/><path fill="#1a9168" d="M 351.546875 189.820312 C 351.191406 189.847656 350.851562 189.773438 350.953125 189.335938 C 350.980469 189.214844 351.339844 189.167969 351.546875 189.089844 Z M 351.546875 189.820312 " fill-opacity="1" fill-rule="nonzero"/><path fill="#1a9168" d="M 346.675781 197.890625 C 346.777344 198.042969 346.855469 198.207031 346.914062 198.382812 C 346.925781 198.441406 346.761719 198.542969 346.675781 198.621094 C 346.582031 198.46875 346.503906 198.304688 346.445312 198.132812 C 346.429688 198.070312 346.589844 197.972656 346.675781 197.890625 Z M 346.675781 197.890625 " fill-opacity="1" fill-rule="nonzero"/><path fill="#1a9168" d="M 51.839844 207.21875 L 52.605469 207.859375 C 51.949219 208.355469 52.003906 207.789062 51.839844 207.21875 Z M 51.839844 207.21875 " fill-opacity="1" fill-rule="nonzero"/><path fill="#1a9168" d="M 61.179688 191.394531 L 61.660156 191.65625 C 61.578125 191.738281 61.484375 191.898438 61.414062 191.886719 C 61.238281 191.828125 61.070312 191.75 60.914062 191.65625 Z M 61.179688 191.394531 " fill-opacity="1" fill-rule="nonzero"/><g fill="#ffffff" fill-opacity="1"><g transform="translate(96.78019, 182.858752)"><g><path d="M 9.710938 1.25 L 19.085938 -20.699219 L 16.773438 -20.699219 L 9.710938 -4.019531 L 2.617188 -20.699219 L 0.304688 -20.699219 Z M 9.710938 1.25 "/></g></g></g><g fill="#ffffff" fill-opacity="1"><g transform="translate(116.169383, 182.858752)"><g><path d="M 4.445312 -18.023438 C 4.171875 -18.265625 3.835938 -18.417969 3.46875 -18.417969 C 3.105469 -18.417969 2.769531 -18.265625 2.527344 -18.023438 C 2.253906 -17.746094 2.132812 -17.414062 2.132812 -17.046875 C 2.132812 -16.683594 2.253906 -16.347656 2.527344 -16.105469 C 2.769531 -15.832031 3.105469 -15.707031 3.46875 -15.707031 C 3.835938 -15.707031 4.171875 -15.832031 4.445312 -16.105469 C 4.6875 -16.347656 4.839844 -16.683594 4.839844 -17.046875 C 4.839844 -17.414062 4.6875 -17.746094 4.445312 -18.023438 Z M 4.566406 0 L 4.566406 -13.394531 L 2.433594 -13.394531 L 2.433594 0 Z M 4.566406 0 "/></g></g></g><g fill="#ffffff" fill-opacity="1"><g transform="translate(123.139755, 182.858752)"><g><path d="M 4.199219 -1.886719 C 3.683594 -2.253906 3.289062 -2.863281 3.074219 -3.746094 L 0.820312 -3.746094 C 1.277344 -0.972656 3.042969 0.394531 6.148438 0.394531 C 6.878906 0.394531 7.550781 0.335938 8.1875 0.152344 C 8.828125 -0.03125 9.375 -0.273438 9.894531 -0.609375 C 10.929688 -1.308594 11.445312 -2.375 11.445312 -3.804688 C 11.445312 -5.265625 10.777344 -6.300781 9.375 -6.972656 C 8.796875 -7.246094 8.160156 -7.457031 7.457031 -7.609375 C 6.789062 -7.761719 6.148438 -7.945312 5.570312 -8.128906 C 4.960938 -8.3125 4.476562 -8.554688 4.078125 -8.828125 C 3.683594 -9.101562 3.46875 -9.527344 3.46875 -10.136719 C 3.46875 -10.746094 3.714844 -11.203125 4.199219 -11.476562 C 4.6875 -11.78125 5.265625 -11.933594 5.90625 -11.933594 C 6.574219 -11.933594 7.152344 -11.78125 7.609375 -11.539062 C 8.066406 -11.292969 8.433594 -10.808594 8.644531 -10.078125 L 10.929688 -10.078125 C 10.65625 -11.414062 10.078125 -12.359375 9.222656 -12.878906 C 8.339844 -13.425781 7.277344 -13.699219 5.964844 -13.699219 C 4.6875 -13.699219 3.5625 -13.332031 2.617188 -12.664062 C 1.703125 -11.964844 1.21875 -10.960938 1.21875 -9.621094 C 1.21875 -8.980469 1.398438 -8.402344 1.734375 -7.914062 C 2.101562 -7.398438 2.617188 -7 3.289062 -6.699219 C 3.898438 -6.421875 4.535156 -6.210938 5.207031 -6.027344 C 5.875 -5.875 6.515625 -5.691406 7.125 -5.511719 C 8.492188 -5.054688 9.195312 -4.382812 9.195312 -3.53125 C 9.195312 -2.070312 8.21875 -1.371094 6.269531 -1.371094 C 5.449219 -1.371094 4.75 -1.523438 4.199219 -1.886719 Z M 4.199219 -1.886719 "/></g></g></g><g fill="#ffffff" fill-opacity="1"><g transform="translate(135.375952, 182.858752)"><g><path d="M 4.445312 -18.023438 C 4.171875 -18.265625 3.835938 -18.417969 3.46875 -18.417969 C 3.105469 -18.417969 2.769531 -18.265625 2.527344 -18.023438 C 2.253906 -17.746094 2.132812 -17.414062 2.132812 -17.046875 C 2.132812 -16.683594 2.253906 -16.347656 2.527344 -16.105469 C 2.769531 -15.832031 3.105469 -15.707031 3.46875 -15.707031 C 3.835938 -15.707031 4.171875 -15.832031 4.445312 -16.105469 C 4.6875 -16.347656 4.839844 -16.683594 4.839844 -17.046875 C 4.839844 -17.414062 4.6875 -17.746094 4.445312 -18.023438 Z M 4.566406 0 L 4.566406 -13.394531 L 2.433594 -13.394531 L 2.433594 0 Z M 4.566406 0 "/></g></g></g><g fill="#ffffff" fill-opacity="1"><g transform="translate(142.346325, 182.858752)"><g><path d="M 0.609375 -11.414062 L 3.957031 -11.414062 L 3.957031 0 L 6.089844 0 L 6.089844 -11.414062 L 9.40625 -11.414062 L 9.40625 -13.394531 L 6.089844 -13.394531 L 6.089844 -18.601562 L 3.957031 -18.601562 L 3.957031 -13.394531 L 0.609375 -13.394531 Z M 0.609375 -11.414062 "/></g></g></g><g fill="#ffffff" fill-opacity="1"><g transform="translate(152.360524, 182.858752)"><g/></g></g><g fill="#ffffff" fill-opacity="1"><g transform="translate(160.578863, 182.858752)"><g><path d="M 21.371094 0 L 23.53125 0 L 18.722656 -22.070312 L 11.933594 -4.351562 L 5.144531 -22.070312 L 0.304688 0 L 2.496094 0 L 5.691406 -14.734375 L 11.933594 1.21875 L 18.144531 -14.734375 Z M 21.371094 0 "/></g></g></g><g fill="#ffffff" fill-opacity="1"><g transform="translate(184.41204, 182.858752)"><g><path d="M 12.9375 -6.699219 C 12.9375 -5.386719 12.480469 -4.230469 11.566406 -3.289062 C 10.65625 -2.3125 9.527344 -1.828125 8.21875 -1.828125 C 6.878906 -1.828125 5.753906 -2.3125 4.839844 -3.289062 C 3.925781 -4.230469 3.5 -5.386719 3.5 -6.699219 C 3.5 -7.976562 3.925781 -9.132812 4.839844 -10.105469 C 5.753906 -11.082031 6.878906 -11.566406 8.21875 -11.566406 C 9.527344 -11.566406 10.65625 -11.082031 11.566406 -10.105469 C 12.480469 -9.132812 12.9375 -7.976562 12.9375 -6.699219 Z M 15.070312 0 L 15.070312 -13.394531 L 12.9375 -13.394531 L 12.9375 -11.082031 C 12.816406 -11.265625 12.664062 -11.414062 12.542969 -11.566406 C 11.265625 -12.96875 9.710938 -13.699219 7.882812 -13.699219 C 6.027344 -13.699219 4.476562 -12.96875 3.195312 -11.566406 C 1.980469 -10.167969 1.371094 -8.554688 1.371094 -6.699219 C 1.371094 -4.808594 1.980469 -3.195312 3.195312 -1.828125 C 4.476562 -0.394531 6.027344 0.304688 7.882812 0.304688 C 9.710938 0.304688 11.265625 -0.394531 12.542969 -1.828125 C 12.664062 -1.949219 12.816406 -2.101562 12.9375 -2.28125 L 12.9375 0 Z M 15.070312 0 "/></g></g></g><g fill="#ffffff" fill-opacity="1"><g transform="translate(201.761859, 182.858752)"><g><path d="M 4.445312 -18.023438 C 4.171875 -18.265625 3.835938 -18.417969 3.46875 -18.417969 C 3.105469 -18.417969 2.769531 -18.265625 2.527344 -18.023438 C 2.253906 -17.746094 2.132812 -17.414062 2.132812 -17.046875 C 2.132812 -16.683594 2.253906 -16.347656 2.527344 -16.105469 C 2.769531 -15.832031 3.105469 -15.707031 3.46875 -15.707031 C 3.835938 -15.707031 4.171875 -15.832031 4.445312 -16.105469 C 4.6875 -16.347656 4.839844 -16.683594 4.839844 -17.046875 C 4.839844 -17.414062 4.6875 -17.746094 4.445312 -18.023438 Z M 4.566406 0 L 4.566406 -13.394531 L 2.433594 -13.394531 L 2.433594 0 Z M 4.566406 0 "/></g></g></g><g fill="#ffffff" fill-opacity="1"><g transform="translate(208.732232, 182.858752)"><g><path d="M 11.539062 0 L 13.667969 0 L 13.667969 -8.371094 C 13.667969 -9.925781 13.242188 -11.171875 12.449219 -12.117188 C 12.023438 -12.601562 11.539062 -12.96875 10.960938 -13.242188 C 10.351562 -13.515625 9.589844 -13.667969 8.644531 -13.667969 C 7.671875 -13.667969 6.847656 -13.394531 6.117188 -12.90625 C 5.417969 -12.449219 4.839844 -11.84375 4.414062 -11.082031 L 4.414062 -13.394531 L 2.28125 -13.394531 L 2.28125 0 L 4.414062 0 L 4.414062 -5.601562 C 4.414062 -7.304688 4.71875 -8.644531 5.359375 -9.648438 C 5.722656 -10.199219 6.179688 -10.65625 6.757812 -11.019531 C 7.304688 -11.355469 8.066406 -11.539062 8.980469 -11.539062 C 9.894531 -11.539062 10.53125 -11.203125 10.929688 -10.59375 C 11.324219 -9.984375 11.539062 -9.222656 11.539062 -8.371094 Z M 11.539062 0 "/></g></g></g><g fill="#ffffff" fill-opacity="1"><g transform="translate(224.225324, 182.858752)"><g/></g></g><g fill="#ffffff" fill-opacity="1"><g transform="translate(232.443663, 182.858752)"><g><path d="M 8.007812 -9.742188 C 10.683594 -9.101562 12.511719 -8.402344 13.484375 -7.609375 C 14.15625 -7.0625 14.492188 -6.363281 14.492188 -5.511719 C 14.492188 -4.65625 14.308594 -3.957031 13.941406 -3.46875 C 13.03125 -2.191406 11.386719 -1.550781 9.070312 -1.550781 C 5.84375 -1.550781 4.019531 -2.648438 3.621094 -4.839844 L 1.125 -4.839844 C 1.855469 -1.339844 4.503906 0.394531 9.070312 0.394531 C 11.113281 0.394531 12.816406 -0.03125 14.1875 -0.945312 C 15.832031 -2.007812 16.683594 -3.59375 16.683594 -5.664062 C 16.683594 -7.367188 16.011719 -8.675781 14.671875 -9.589844 C 13.730469 -10.257812 12.207031 -10.867188 10.105469 -11.414062 C 7.976562 -11.964844 6.605469 -12.421875 5.964844 -12.753906 C 4.566406 -13.457031 3.867188 -14.429688 3.898438 -15.707031 C 3.898438 -16.378906 4.019531 -16.957031 4.324219 -17.382812 C 5.113281 -18.570312 6.515625 -19.179688 8.523438 -19.179688 C 11.355469 -19.179688 12.96875 -18.265625 13.394531 -16.5 L 15.707031 -16.5 C 14.949219 -19.484375 12.542969 -21.003906 8.523438 -21.003906 C 6.699219 -21.003906 5.082031 -20.519531 3.746094 -19.542969 C 2.375 -18.570312 1.675781 -17.140625 1.675781 -15.191406 C 1.675781 -12.542969 3.804688 -10.714844 8.007812 -9.742188 Z M 8.007812 -9.742188 "/></g></g></g><g fill="#ffffff" fill-opacity="1"><g transform="translate(249.915239, 182.858752)"><g><path d="M 4.445312 -18.023438 C 4.171875 -18.265625 3.835938 -18.417969 3.46875 -18.417969 C 3.105469 -18.417969 2.769531 -18.265625 2.527344 -18.023438 C 2.253906 -17.746094 2.132812 -17.414062 2.132812 -17.046875 C 2.132812 -16.683594 2.253906 -16.347656 2.527344 -16.105469 C 2.769531 -15.832031 3.105469 -15.707031 3.46875 -15.707031 C 3.835938 -15.707031 4.171875 -15.832031 4.445312 -16.105469 C 4.6875 -16.347656 4.839844 -16.683594 4.839844 -17.046875 C 4.839844 -17.414062 4.6875 -17.746094 4.445312 -18.023438 Z M 4.566406 0 L 4.566406 -13.394531 L 2.433594 -13.394531 L 2.433594 0 Z M 4.566406 0 "/></g></g></g><g fill="#ffffff" fill-opacity="1"><g transform="translate(256.885612, 182.858752)"><g><path d="M 0.609375 -11.414062 L 3.957031 -11.414062 L 3.957031 0 L 6.089844 0 L 6.089844 -11.414062 L 9.40625 -11.414062 L 9.40625 -13.394531 L 6.089844 -13.394531 L 6.089844 -18.601562 L 3.957031 -18.601562 L 3.957031 -13.394531 L 0.609375 -13.394531 Z M 0.609375 -11.414062 "/></g></g></g><g fill="#ffffff" fill-opacity="1"><g transform="translate(266.899811, 182.858752)"><g><path d="M 15.375 -7 C 15.375 -8.828125 14.644531 -10.410156 13.242188 -11.78125 C 11.871094 -13.089844 10.230469 -13.761719 8.371094 -13.761719 C 6.421875 -13.761719 4.78125 -13.058594 3.410156 -11.691406 C 2.039062 -10.320312 1.371094 -8.675781 1.371094 -6.757812 C 1.371094 -4.808594 2.039062 -3.167969 3.410156 -1.828125 C 4.050781 -1.1875 4.78125 -0.699219 5.632812 -0.335938 C 6.484375 0.03125 7.488281 0.214844 8.675781 0.214844 C 9.863281 0.214844 11.019531 -0.152344 12.175781 -0.882812 C 13.332031 -1.613281 14.1875 -2.648438 14.765625 -3.925781 L 12.328125 -3.925781 C 11.84375 -3.289062 11.265625 -2.800781 10.5625 -2.433594 C 9.863281 -2.070312 9.132812 -1.917969 8.371094 -1.917969 C 7.214844 -1.917969 6.179688 -2.28125 5.265625 -3.042969 C 4.351562 -3.773438 3.773438 -4.71875 3.59375 -5.875 L 15.375 -5.875 Z M 13.121094 -7.703125 L 3.621094 -7.703125 C 3.746094 -8.25 3.957031 -8.765625 4.261719 -9.253906 C 5.234375 -10.835938 6.605469 -11.628906 8.371094 -11.628906 C 9.5 -11.628906 10.503906 -11.265625 11.386719 -10.53125 C 12.296875 -9.773438 12.847656 -8.828125 13.121094 -7.703125 Z M 13.121094 -7.703125 "/></g></g></g></svg>